<svg version="1.1" id="Layer_1" xmlns="http://www.w3.org/2000/svg" xmlns:xlink="http://www.w3.org/1999/xlink" x="0px" y="0px"
	 width="100%" viewBox="0 0 247 204" enable-background="new 0 0 247 204" xml:space="preserve">
<path fill="#010101" opacity="1.000000" stroke="none" 
	d="
M1.000000,159.000000 
	C1.000000,106.333336 1.000000,53.666664 1.000000,1.000000 
	C3.016260,1.000000 5.010225,1.000000 7.752223,1.262715 
	C44.776814,14.512655 81.089622,27.400459 117.289032,40.599289 
	C122.442535,42.478333 126.844894,42.743141 131.894623,40.492908 
	C137.769562,37.874962 144.015564,36.095203 150.082489,33.901714 
	C180.391571,22.943481 210.694748,11.968860 241.000000,0.999999 
	C243.327133,1.000000 245.654251,1.000000 248.000000,1.000000 
	C248.000000,53.354225 248.000000,105.708458 247.670715,158.660034 
	C245.525772,160.537491 243.881058,162.279526 241.867462,163.024750 
	C225.580002,169.052460 208.973282,174.298569 192.985077,181.022263 
	C183.961090,184.817230 177.254990,184.677856 171.469254,176.391342 
	C170.539932,175.060318 169.047226,174.125626 167.828384,172.993301 
	C155.067719,161.138367 142.309784,149.280518 129.347870,137.234619 
	C133.892075,132.295471 138.074905,127.595093 142.477020,123.109947 
	C143.246811,122.325645 145.156204,121.863152 146.170364,122.241333 
	C154.335449,125.286140 161.726959,123.323982 167.144653,117.282829 
	C178.219299,104.933762 188.554260,91.921356 199.461258,79.059036 
	C200.061081,78.451180 200.393509,77.966423 200.885742,77.341385 
	C201.250336,76.994560 201.389786,76.750648 201.655518,76.251549 
	C201.795502,75.761520 201.743851,75.489334 201.692215,75.217148 
	C201.432068,75.448685 201.171936,75.680222 200.646454,75.940796 
	C200.196335,76.255028 200.011581,76.540237 199.595230,76.864624 
	C199.075195,77.262947 198.786758,77.622078 198.185547,78.146233 
	C187.251389,88.779060 176.629990,99.246864 165.819504,109.901039 
	C165.174194,109.353401 164.436096,108.727020 163.586090,108.005661 
	C164.515884,106.982941 165.065231,106.396080 165.595718,105.792618 
	C175.140427,94.934349 184.682861,84.074089 194.503601,73.085800 
	C194.800674,72.393959 194.819962,71.830574 194.839249,71.267189 
	C194.380096,71.544388 193.920959,71.821579 193.151169,72.254150 
	C190.151413,74.891838 187.435165,77.345497 184.778366,79.861938 
	C177.290695,86.954002 169.868851,94.116592 162.300598,101.121231 
	C161.385254,101.968407 159.731186,102.017395 158.419479,102.436310 
	C158.927414,101.130447 159.337967,99.773918 159.980881,98.538300 
	C160.348755,97.831284 161.101959,97.327812 161.669189,96.721031 
	C170.857880,86.891716 180.044556,77.060516 189.477814,67.146294 
	C189.862534,66.755432 190.001175,66.448021 190.417633,66.029030 
	C190.220688,65.785355 189.745880,65.653275 189.134369,65.589310 
	C188.827072,65.780884 188.705475,65.941422 188.306335,66.282074 
	C176.408813,76.619652 164.837814,86.814209 153.143753,97.117172 
	C152.212692,96.332825 151.467987,95.705482 149.669113,94.190094 
	C161.104996,82.330894 172.090591,70.938675 179.682983,63.065250 
	C170.378738,70.910805 157.090134,81.689186 144.328857,93.059387 
	C138.084076,98.623444 136.056625,106.097580 138.630188,114.461037 
	C138.954529,115.515068 138.941696,117.192154 138.317169,117.934792 
	C134.172363,122.863602 129.818176,127.616325 125.548882,132.407486 
	C118.159019,126.094589 112.099922,120.918518 106.087944,115.782692 
	C113.382561,103.016396 111.428932,89.394814 100.596878,79.385742 
	C91.641609,71.110870 81.004051,65.667603 69.040924,63.279667 
	C54.369480,60.351139 47.079155,67.025177 49.039791,81.749870 
	C50.732346,94.461243 56.701973,105.398491 65.349129,114.679237 
	C75.444839,125.514671 88.451851,127.327072 101.763069,120.218971 
	C106.961220,125.826965 112.209488,131.489029 117.549286,137.249847 
	C101.151367,152.465195 85.120544,167.260193 69.218628,182.192474 
	C67.148613,184.136230 65.514175,184.086975 63.042175,183.185745 
	C44.372284,176.379135 25.621294,169.794846 6.957444,162.972015 
	C4.778774,162.175568 2.976676,160.348999 1.000000,159.000000 
z"/>
<path fill="#FCFCFC" opacity="1.000000" stroke="none" 
	d="
M1.000000,159.468658 
	C2.976676,160.348999 4.778774,162.175568 6.957444,162.972015 
	C25.621294,169.794846 44.372284,176.379135 63.042175,183.185745 
	C65.514175,184.086975 67.148613,184.136230 69.218628,182.192474 
	C85.120544,167.260193 101.151367,152.465195 117.549286,137.249847 
	C112.209488,131.489029 106.961220,125.826965 101.763069,120.218971 
	C88.451851,127.327072 75.444839,125.514671 65.349129,114.679237 
	C56.701973,105.398491 50.732346,94.461243 49.039791,81.749870 
	C47.079155,67.025177 54.369480,60.351139 69.040924,63.279667 
	C81.004051,65.667603 91.641609,71.110870 100.596878,79.385742 
	C111.428932,89.394814 113.382561,103.016396 106.087944,115.782692 
	C112.099922,120.918518 118.159019,126.094589 125.548882,132.407486 
	C129.818176,127.616325 134.172363,122.863602 138.317169,117.934792 
	C138.941696,117.192154 138.954529,115.515068 138.630188,114.461037 
	C136.056625,106.097580 138.084076,98.623444 144.328857,93.059387 
	C157.090134,81.689186 170.378738,70.910805 179.682983,63.065250 
	C172.090591,70.938675 161.104996,82.330894 149.669113,94.190094 
	C151.467987,95.705482 152.212692,96.332825 153.143753,97.117172 
	C164.837814,86.814209 176.408813,76.619652 188.437256,66.565079 
	C189.007019,66.879951 189.119354,67.054848 189.231705,67.229752 
	C180.044556,77.060516 170.857880,86.891716 161.669189,96.721031 
	C161.101959,97.327812 160.348755,97.831284 159.980881,98.538300 
	C159.337967,99.773918 158.927414,101.130447 158.419479,102.436310 
	C159.731186,102.017395 161.385254,101.968407 162.300598,101.121231 
	C169.868851,94.116592 177.290695,86.954002 184.778366,79.861938 
	C187.435165,77.345497 190.151413,74.891838 193.329010,72.542030 
	C193.953583,72.854446 194.089691,73.034348 194.225800,73.214249 
	C184.682861,84.074089 175.140427,94.934349 165.595718,105.792618 
	C165.065231,106.396080 164.515884,106.982941 163.586090,108.005661 
	C164.436096,108.727020 165.174194,109.353401 165.819504,109.901039 
	C176.629990,99.246864 187.251389,88.779060 198.330963,78.462975 
	C198.924072,78.803848 199.058975,78.992996 199.193863,79.182144 
	C188.554260,91.921356 178.219299,104.933762 167.144653,117.282829 
	C161.726959,123.323982 154.335449,125.286140 146.170364,122.241333 
	C145.156204,121.863152 143.246811,122.325645 142.477020,123.109947 
	C138.074905,127.595093 133.892075,132.295471 129.347870,137.234619 
	C142.309784,149.280518 155.067719,161.138367 167.828384,172.993301 
	C169.047226,174.125626 170.539932,175.060318 171.469254,176.391342 
	C177.254990,184.677856 183.961090,184.817230 192.985077,181.022263 
	C208.973282,174.298569 225.580002,169.052460 241.867462,163.024750 
	C243.881058,162.279526 245.525772,160.537491 247.670715,159.128693 
	C248.000000,174.293304 248.000000,189.586594 248.000000,205.000000 
	C207.645844,205.000000 167.291580,205.000000 126.706070,204.725098 
	C139.768951,199.704575 153.063095,194.958939 166.827820,190.045319 
	C152.399567,174.092941 138.569031,158.801437 124.593819,143.349976 
	C109.780838,158.804535 95.211853,174.004517 80.553040,189.298218 
	C95.135002,194.692307 109.067497,199.846161 123.000000,205.000000 
	C82.439507,205.000000 41.879005,205.000000 1.000000,205.000000 
	C1.000000,189.980606 1.000000,174.958969 1.000000,159.468658 
z"/>
<path fill="#FDFDFD" opacity="1.000000" stroke="none" 
	d="
M240.531342,0.999999 
	C210.694748,11.968860 180.391571,22.943481 150.082489,33.901714 
	C144.015564,36.095203 137.769562,37.874962 131.894623,40.492908 
	C126.844894,42.743141 122.442535,42.478333 117.289032,40.599289 
	C81.089622,27.400459 44.776814,14.512655 8.250128,1.262715 
	C85.354225,1.000000 162.708450,1.000000 240.531342,0.999999 
z"/>
<path fill="#020202" opacity="1.000000" stroke="none" 
	d="
M123.375000,205.000000 
	C109.067497,199.846161 95.135002,194.692307 80.553040,189.298218 
	C95.211853,174.004517 109.780838,158.804535 124.593819,143.349976 
	C138.569031,158.801437 152.399567,174.092941 166.827820,190.045319 
	C153.063095,194.958939 139.768951,199.704575 126.237411,204.725098 
	C125.250000,205.000000 124.500000,205.000000 123.375000,205.000000 
z"/>
<path fill="#FCFCFC" opacity="1.000000" stroke="none" 
	d="
M193.639648,72.386658 
	C193.920959,71.821579 194.380096,71.544388 194.839249,71.267189 
	C194.819962,71.830574 194.800674,72.393959 194.503601,73.085800 
	C194.089691,73.034348 193.953583,72.854446 193.639648,72.386658 
z"/>
<path fill="#FCFCFC" opacity="1.000000" stroke="none" 
	d="
M200.725937,77.481667 
	C200.393509,77.966423 200.061081,78.451180 199.461258,79.059036 
	C199.058975,78.992996 198.924072,78.803848 198.643738,78.297951 
	C198.786758,77.622078 199.075195,77.262947 199.810822,77.041267 
	C200.413986,77.279701 200.569962,77.380684 200.725937,77.481667 
z"/>
<path fill="#FCFCFC" opacity="1.000000" stroke="none" 
	d="
M189.271088,65.521194 
	C189.745880,65.653275 190.220688,65.785355 190.207397,65.864441 
	C189.569901,65.714684 189.420486,65.617935 189.271088,65.521194 
z"/>
<path fill="#FCFCFC" opacity="1.000000" stroke="none" 
	d="
M188.763763,66.422050 
	C188.705475,65.941422 188.827072,65.780884 189.134369,65.589310 
	C189.420486,65.617935 189.569901,65.714684 189.929565,65.976028 
	C190.001175,66.448021 189.862534,66.755432 189.477814,67.146294 
	C189.119354,67.054848 189.007019,66.879951 188.763763,66.422050 
z"/>
<path fill="#FCFCFC" opacity="1.000000" stroke="none" 
	d="
M200.911804,75.911774 
	C201.171936,75.680222 201.432068,75.448685 201.692215,75.217148 
	C201.743851,75.489334 201.795502,75.761520 201.518326,76.111053 
	C201.189499,76.188393 200.911804,75.911774 200.911804,75.911774 
z"/>
<path fill="#FCFCFC" opacity="1.000000" stroke="none" 
	d="
M200.042419,77.002075 
	C200.011581,76.540237 200.196335,76.255028 200.646454,75.940796 
	C200.911804,75.911774 201.189499,76.188393 201.326691,76.328888 
	C201.389786,76.750648 201.250336,76.994560 200.885742,77.341385 
	C200.569962,77.380684 200.413986,77.279701 200.042419,77.002075 
z"/>
</svg>